<?xml version="1.0" encoding="utf-8"?>
<!-- Generator: Adobe Illustrator 19.0.0, SVG Export Plug-In . SVG Version: 6.00 Build 0)  -->
<svg version="1.1" id="Layer_1" xmlns="http://www.w3.org/2000/svg" xmlns:xlink="http://www.w3.org/1999/xlink" x="0px" y="0px"
	 viewBox="-229 157.3 382.5 282" style="enable-background:new -229 157.3 382.5 282;" xml:space="preserve">
<style type="text/css">
	.st0{fill:#4576B9;}
	.st1{fill:#4676B8;}
	.st2{fill:#1D3F6C;}
	.st3{fill:#F6A11C;}
	.st4{fill:#1A2D58;}
</style>
<g id="XMLID_1_">
	<path id="XMLID_2_" class="st0" d="M-126.1,163c1.3,8.7,1.3,17.5,1.2,26.3c-0.1,8.7-0.5,17.4-0.8,26.1c-0.1,3-0.3,6.1-0.1,9.2
		c0-7.6-0.4-15.2-0.5-22.8c-0.1-8.2,0-16.5,0.1-24.7C-126.2,172.3-126.2,167.7-126.1,163c0.2,1.4,0,3,0,4.4c0,0.9,0,1.8,0,2.6
		c0,0.3-0.1,0.9,0,1.2c-0.2-0.5,0-1.4,0-1.8C-126.2,167.3-126.2,165.2-126.1,163C-123.3,181.3-126.3,181.1-126.1,163z"/>
</g>
<g id="Layer_5">
</g>
<g id="XMLID_8617_">
	<path id="XMLID_63_" class="st0" d="M-218.6,296.1c-0.6,0.4-1.2,0.7-1.9,1.1c-0.2,0.1-1.5,1-1.5,0.8c0,6.5,0.6,13,1.5,19.4
		c0.9,6.3,2,12.6,3.9,18.6c2.4,7.8,5,15.8,9.2,22.9c4.8,8,11.1,15.1,18.5,20.7c2.4,1.8,4.9,3.7,7.6,5c3.9,1.8,8.1,2.9,12.4,3.2
		c6,0.4,11.7-1.1,17.1-3.8c-8.3,4.1-17.4,5.6-26.4,2.6c-1.8-0.6-3.6-1.4-5.3-2.1c-4.8-3.1-9.5-6.5-13.6-10.5
		c-4.1-4-7.6-8.6-10.5-13.5c-3.2-5.3-5.5-10.9-7.5-16.8c-2-5.9-3.8-11.8-4.9-18c-1.7-9.3-2.1-18.6-2.1-28
		C-221.1,297.3-219.8,296.7-218.6,296.1z"/>
</g>
<g id="XMLID_8613_">
	<path id="XMLID_61_" class="st0" d="M-222.6,297.2c0.3-8.7,1.5-17.3,2.9-25.8c0.7-4.1,1.3-8.3,2.4-12.3c1.1-4,2.5-7.9,4.1-11.7
		c3.2-7.4,7.5-14.3,12.7-20.5c2.6-3.1,5.4-6.1,8.5-8.7c1.3-1.2,2.6-2.5,4.1-3.4c7.2-4.8,15.8-7.2,24.4-6.1c3.5,0.8,7,2,10.3,3.5
		c4,1.8,7.4,4.2,10.7,6.9c2.7,2.2,5,4.8,7.3,7.4c-4.6-5.2-10.1-9.5-16.3-12.7c-2-1-4-1.9-6.1-2.5c-2.6-0.8-5.3-1.7-8.1-1.8
		c-6-0.3-12.1,1-17.5,3.7c-3.7,1.8-6.7,4.2-9.7,7c-9.5,8.9-16.9,20-21.4,32.2c-4.7,12.8-6.6,26.3-7.9,39.8
		C-222.3,293.7-222.4,295.4-222.6,297.2c0.1-1.1,0.4-2.5,0.3-3.7C-222.1,294.7-222.5,296-222.6,297.2
		C-222.2,287.3-222.1,292.3-222.6,297.2C-222.2,286-222.1,292.3-222.6,297.2z"/>
</g>
<g id="XMLID_8610_">
	<path id="XMLID_59_" class="st0" d="M-139.8,221.9c-1.4-0.2-2.7-0.5-4.1-0.7c-1.9-0.4-3.7-1-5.6-1c-3.7,0-7.3,1.4-10.4,3.4
		c-6.7,4.2-11.4,10.6-15,17.5c-3.9,7.4-6.3,15.6-8,23.8c-1.7,8.1-2.6,16.5-2.8,24.8c-0.4,13.6,0.8,27.4,3.3,40.9
		c2,10.6,5.1,21.5,11.3,30.4c2.9,4.2,6.7,7.9,11.2,10.5c5.2,3,11.1,4.2,17.1,3.8c1.3-0.1,2.5-0.3,3.7-0.4c-2.8,0.4-5.5,0.9-8.3,0.7
		c-3.5-0.2-6.9-0.9-10.1-2.3c-6-2.5-10.8-7.4-14.4-12.8c-7.7-11.6-11.1-25.5-13.1-39.1c-2.1-13.9-2.5-28.2-1-42.2
		c1.5-13.8,4.4-28,11.4-40.1c1.7-3,3.7-5.8,6-8.3c2.2-2.3,4.4-4.6,7.2-6.2c5.1-3,11.2-3.8,17.1-3.2
		C-142.7,221.3-141.3,221.6-139.8,221.9z"/>
</g>
<g id="XMLID_8607_">
	<path id="XMLID_57_" class="st0" d="M-151.7,213.7c-7.7-1.5-15.2-0.2-21.9,3.9c-6.2,3.8-11.2,9.7-14.9,15.9
		c-4,6.6-6.7,13.8-8.9,21.2c-2.2,7.4-4.1,15-5.4,22.6c-2.5,14.8-2,30,0.6,44.7c2.6,14.9,7.1,29.9,15.8,42.5
		c4.1,6,9.1,11.6,15.4,15.4c3,1.8,6.3,3,9.8,3.5c1.7,0.3,3.3,0.3,5,0.2c0.2,0,2-0.2,1.9-0.4c-0.2-0.2-1-0.1-1.3-0.2
		c-0.9-0.1-1.7-0.1-2.6-0.2c-2.4-0.2-4.8-0.5-7.1-0.9c-2.4-0.5-4.7-1.1-6.8-2.4c-3.1-1.9-5.9-4.2-8.4-6.9
		c-5.2-5.4-9.5-11.8-12.8-18.5c-3.4-7-5.6-14.7-7.4-22.2c-3.7-15.8-5.4-32.3-3.8-48.4c0.8-8,2.4-15.8,4.6-23.5
		c2.1-7.5,4.4-15,8-21.9c3.2-6.3,7.4-12.6,12.9-17.1c5-4.1,11.2-6.6,17.7-7.3C-158.1,213.3-154.9,213.3-151.7,213.7
		C-154.9,213.1-163.4,212.4-151.7,213.7z"/>
</g>
<g id="XMLID_8604_">
	<path id="XMLID_55_" class="st0" d="M-173.6,187.7c7.6-0.4,14.7,3.3,20.4,8.1c6.4,5.4,11.3,12.2,15.2,19.6c1.1,2.2,2.2,4.3,3.2,6.5
		c0.9,1.9,1.4,3.8,2.2,5.7c-1.6-0.3-3.4-0.5-5-0.2c-1.7,0.3-3.4,1.3-4.9,2.2c-3,1.8-5.6,4.1-7.9,6.6c-5,5.7-8.2,12.7-10.7,19.8
		c-2.9,8-4.7,16.4-5.7,24.8c-0.9,8.6-1.3,17.3-0.8,26c0.5,8.5,2,16.8,4.1,25.1c1.8,7.1,4.3,14.1,8.1,20.4c1.9,3.2,4.1,6.2,6.5,9
		c2.3,2.6,4.7,5.4,7.6,7.4c1.4,1,2.9,1.8,4.6,2.2c0.9,0.2,1.8,0.1,2.8,0.1c0.2,0,0.8-0.1,1,0c0.1,0.1,0.1,0.5,0.2,0.6
		c0.4,1.9-0.6,3.2-1.4,4.9c-0.9,1.9-1.9,3.8-2.9,5.6c-1.9,3.6-4.2,7-6.7,10.1c-1.2,1.5-2.5,3-3.9,4.4c-1.4,1.5-2.7,3-4.3,4.3
		c-5.3,4.6-12,7.9-19.1,8.5c-0.7,0.1-1.3,0.1-2,0.1c2.5-0.3,5-0.7,7.4-1.4c4.1-1.2,8.1-3.3,11.5-5.9c6.6-5.1,11.8-12.2,15.9-19.5
		c1.4-2.4,2.6-4.9,3.8-7.5c0.3-0.6,0.5-1.2,0.8-1.8c0.4-0.9,0.2-1.2,0-2.2c0.1,0.1,0.2,0.2,0.3,0.3c-2.6,0.3-5.3-0.1-7.5-1.5
		c-2.4-1.5-4.3-3.9-6.4-5.9c-3.1-3-5.9-6.1-8.2-9.8c-5.9-9.2-9.3-19.8-11.4-30.5c-2.1-11.1-2.8-22.4-2-33.6
		c0.9-13.1,3.3-26.1,8.2-38.4c2.3-5.9,5.3-11.5,9.4-16.4c3.5-4.1,8.3-7.9,13.8-8.7c1.3-0.2,2.7-0.2,4,0c-0.3,0.3-0.4-0.4-0.4-0.6
		c-0.2-0.5-0.4-1.1-0.5-1.6c-0.3-1-0.8-1.9-1.2-2.9c-0.8-1.9-1.7-3.9-2.7-5.7c-1.9-3.7-4.1-7.4-6.6-10.7c-4.3-5.9-10.1-11.7-16.7-15
		c-1.8-0.9-3.7-1.7-5.7-2.1C-169.3,188-171.5,187.7-173.6,187.7c0.1,0,1.4,0,1.4-0.1C-172.2,187.8-173.5,187.7-173.6,187.7
		C-164.7,187.2-172.4,187.7-173.6,187.7z"/>
</g>
<g id="XMLID_8601_">
	<path id="XMLID_53_" class="st0" d="M-124.9,436.1c-1.3-8.7-1.3-17.5-1.2-26.3c0.1-8.7,0.5-17.4,0.8-26.1c0.1-3,0.3-6.1,0.1-9.2
		c0,7.6,0.4,15.2,0.5,22.8c0.1,8.2,0,16.5-0.1,24.7C-124.8,426.8-124.9,431.4-124.9,436.1c-0.2-1.4,0-3,0-4.4c0-0.9,0-1.8,0-2.6
		c0-0.3,0.1-0.9,0-1.2c0.2,0.5,0,1.4,0,1.8C-124.9,431.8-124.9,434-124.9,436.1C-127.7,417.8-124.7,418-124.9,436.1z"/>
</g>
<g id="XMLID_8595_">
	<path id="XMLID_51_" class="st0" d="M-157.4,179.8c1.4,0.6,2.9,1.1,4.3,1.9c1.5,0.8,3,1.7,4.4,2.7c2.9,2,5.5,4.4,7.7,7.2
		c4.8,5.9,7.7,13.4,8.8,20.8c0.8,4.8,0.5,9.5,0.4,14.3c0.1-7.7-0.6-15.5-3.3-22.8c-2.7-7.3-7.3-13.8-13.4-18.7
		c-1.7-1.3-3.3-2.5-5.2-3.6C-154.9,180.8-156.2,180.4-157.4,179.8z"/>
</g>
<g id="XMLID_8592_">
	<path id="XMLID_49_" class="st0" d="M-156,416.9c6.6-3.4,12.7-8,16.9-14.1c4.6-6.7,6.4-14.9,7.3-22.8c0.3-2.9,0.8-5.7,1.1-8.6
		c-0.1,3.8-0.4,7.7-1,11.5c-0.5,3.7-1,7.6-2.1,11.2c-1.9,6.5-6.2,12.9-11.7,16.8C-148.8,413.3-152.1,415.4-156,416.9z"/>
</g>
<g id="XMLID_8589_">
	<path id="XMLID_47_" class="st0" d="M-140.3,420c3.4-4.8,6.4-9.7,8.3-15.3c2.2-6.5,3.3-13.5,3.5-20.4c0.1-4.3,0-8.6-0.2-12.8
		c2.2,13.7,1.2,29-6,41.1C-136.3,415.2-138.3,417.6-140.3,420z"/>
</g>
<g id="XMLID_8586_">
	<path id="XMLID_45_" class="st0" d="M-140.9,176.9c9.3,9.7,12.5,24.1,12.8,37.2c0.1,4.2-0.3,8.4-1.2,12.4
		c0.8-5.7,0.7-11.6-0.1-17.3c-0.1-3-0.6-5.9-1.3-8.9c-0.6-2.9-1.3-5.8-2.2-8.6C-134.6,186.4-137.6,181.4-140.9,176.9
		c0.3,0.3,1.1,0.9,1.1,1.3C-139.8,177.9-140.7,177.1-140.9,176.9C-136.8,181.2-140,178.1-140.9,176.9
		C-134.6,183.5-140,178.1-140.9,176.9z"/>
</g>
<g id="XMLID_8583_">
	<path id="XMLID_43_" class="st0" d="M-150.3,383c-0.3,0.4-0.5,1-0.9,1.4c-0.5-0.5-1-0.8-1.5-1.3c1.8-0.4,3.6-1.2,5.2-2.1
		c2-1,4.1-2.1,5.9-3.4c2.5-1.8,4.7-3.8,7-5.9c-4.5,5.7-10.2,10.2-17.5,11.7c0-0.1,0-0.3,0.1-0.4c0.3,0.3,0.6,0.7,0.9,1
		c-0.1,0-0.1,0-0.2,0C-151,383.7-150.7,383.3-150.3,383c-0.1,0.1-0.1,0.2-0.2,0.3C-150.6,383.3-150.2,382.9-150.3,383
		C-150.6,383.4-150.7,383.3-150.3,383C-150.6,383.4-150.7,383.3-150.3,383z"/>
</g>
<g id="XMLID_8580_">
	<path id="XMLID_8245_" class="st0" d="M-190.4,295.9c0.9,0,1.8,0.3,2.6,0.8c0.1,0.1,1.7,0.9,1.6,1.2c-0.2,0.3-1.5-0.2-1.6-0.2
		C-188.9,297.3-189.8,296.8-190.4,295.9z"/>
</g>
<g id="XMLID_8577_">
	<path id="XMLID_8242_" class="st0" d="M-208.3,296.1c0.9,0,1.8,0.4,2.6,0.8c0.2,0.1,1.2,0.5,1.1,0.8c0,0.3-1.1,0.1-1.2,0
		C-206.8,297.5-207.7,296.9-208.3,296.1z"/>
</g>
<g id="XMLID_8574_">
	<path id="XMLID_8235_" class="st0" d="M-201.1,296.1c-0.5,1.2-2,2.1-3.3,2.2C-203.9,297-202.4,296.2-201.1,296.1z"/>
</g>
<g id="XMLID_8531_">
	<path id="XMLID_8230_" class="st0" d="M-182.7,295.6c-0.5,1.2-2,2.1-3.3,2.2C-185.5,296.5-184,295.7-182.7,295.6z"/>
</g>
<g id="XMLID_8528_">
	<path id="XMLID_41_" class="st0" d="M-171.5,296.4c1,0.2,1.9,0.5,2.8,1c-0.1,0-0.3,0-0.4,0c1.4-0.4,2.7-0.8,4.1-1.2
		c-1.1,0.7-2.3,1.6-3.6,2c-0.5,0.2-0.6,0-1.1-0.4C-170.3,297.4-170.9,296.9-171.5,296.4c0.1,0,0.7,0.2,0.7,0.3
		C-170.9,296.9-171.5,296.4-171.5,296.4C-170.5,296.6-170.7,297.1-171.5,296.4C-170.5,296.6-170.7,297.1-171.5,296.4z"/>
</g>
<g id="XMLID_8522_">
	<path id="XMLID_8222_" class="st0" d="M-226.1,296.4c1.4-0.4,3.1,0.5,4,1.5C-223.5,298.2-225.2,297.3-226.1,296.4z"/>
</g>
<polygon id="XMLID_66_" class="st1" points="-37.7,319.9 -23.7,309.6 58.7,370.7 44.7,381 "/>
<path id="XMLID_28_" class="st2" d="M44.7,299.2v40.3c-4.6-3.4-54.4-40.3-54.4-40.3l-14,10.4l82.3,61.1v-60.9L44.7,299.2z"/>
<polygon id="XMLID_32_" class="st2" points="44.7,278.1 58.6,288.7 58.6,227.7 44.7,217.3 "/>
<polygon id="XMLID_31_" class="st3" points="44.7,299.2 44.7,299.2 30.7,309.7 30.7,329.1 44.7,339.6 "/>
<path id="XMLID_35_" class="st3" d="M-106.1,329.1v20.8c45.6-33.8,91.2-67.6,136.7-101.4c0,13.4,0,26.8,0,40.2
	c4.6-3.5,9.3-7.1,14-10.6v-60.8C44.7,217.3-83.3,312.3-106.1,329.1z"/>
<path id="XMLID_23_" class="st4" d="M-106.1,349.9c0-6.9,0-40.2,0-40.2l-14,10.2V381c36.8-27.3,150.7-111.8,150.7-111.8l0,0l0,0
	v-20.7"/>
<polygon id="XMLID_36_" class="st4" points="-120,299.2 -106.1,288.8 -106.1,269.2 -106.1,269.2 -106.1,269.2 -120,258.8 "/>
<path id="XMLID_37_" class="st2" d="M-37.7,278.4l-82.3-61.1l-14,10.4c27.4,20.4,54.9,40.7,82.3,61.1L-37.7,278.4z"/>
<path id="XMLID_18_" class="st1" d="M-134,288.8l14,10.4l0,0v-40.3c18.2,13.4,36.2,26.9,54.4,40.3l14-10.4l-82.4-61.1"/>
<polyline id="XMLID_19_" class="st1" points="-120,381 -120,319.9 -120,319.9 -134,309.6 -134,372.3 "/>
<g id="XMLID_52_">
	<path id="XMLID_54_" class="st0" d="M49.4,433.8c-1.3-8.7-1.3-17.5-1.2-26.3c0.1-8.7,0.5-17.4,0.8-26.1c0.1-3,0.3-6.1,0.1-9.2
		c0,7.6,0.4,15.2,0.5,22.8c0.1,8.2,0,16.5-0.1,24.7C49.5,424.5,49.4,429.2,49.4,433.8c-0.2-1.4,0-3,0-4.4c0-0.9,0-1.8,0-2.6
		c0-0.3,0.1-0.9,0-1.2c0.2,0.5,0,1.4,0,1.8C49.4,429.5,49.4,431.7,49.4,433.8C46.6,415.6,49.6,415.8,49.4,433.8z"/>
</g>
<g id="XMLID_48_">
	<path id="XMLID_50_" class="st0" d="M141.9,300.8c0.6-0.4,1.2-0.7,1.9-1.1c0.2-0.1,1.5-1,1.5-0.8c0-6.5-0.6-13-1.5-19.4
		c-0.9-6.3-2-12.6-3.9-18.6c-2.4-7.8-5-15.8-9.2-22.9c-4.8-8-11.1-15.1-18.5-20.7c-2.4-1.8-4.9-3.7-7.6-5c-3.9-1.8-8.1-2.9-12.4-3.2
		c-6-0.4-11.7,1.1-17.1,3.8c8.3-4.1,17.4-5.6,26.4-2.6c1.8,0.6,3.6,1.4,5.3,2.1c4.8,3.1,9.5,6.5,13.6,10.5c4.1,4,7.6,8.6,10.5,13.5
		c3.2,5.3,5.5,10.9,7.5,16.8c2,5.9,3.8,11.8,4.9,18c1.7,9.3,2.1,18.6,2.1,28C144.3,299.6,143.1,300.2,141.9,300.8z"/>
</g>
<g id="XMLID_44_">
	<path id="XMLID_46_" class="st0" d="M145.9,299.7c-0.3,8.7-1.5,17.3-2.9,25.8c-0.7,4.1-1.3,8.3-2.4,12.3c-1.1,4-2.5,7.9-4.1,11.7
		c-3.2,7.4-7.5,14.3-12.7,20.5c-2.6,3.1-5.4,6.1-8.5,8.7c-1.3,1.2-2.6,2.5-4.1,3.4c-7.2,4.8-15.8,7.2-24.4,6.1
		c-3.5-0.8-7-2-10.3-3.5c-4-1.8-7.4-4.2-10.7-6.9c-2.7-2.2-5-4.8-7.3-7.4c4.6,5.2,10.1,9.5,16.3,12.7c2,1,4,1.9,6.1,2.5
		c2.6,0.8,5.3,1.7,8.1,1.8c6,0.3,12.1-1,17.5-3.7c3.7-1.8,6.7-4.2,9.7-7c9.5-8.9,16.9-20,21.4-32.2c4.7-12.8,6.6-26.3,7.9-39.8
		C145.5,303.1,145.7,301.4,145.9,299.7c-0.1,1.1-0.4,2.5-0.3,3.7C145.4,302.2,145.7,300.8,145.9,299.7
		C145.5,309.5,145.4,304.6,145.9,299.7C145.4,310.8,145.4,304.6,145.9,299.7z"/>
</g>
<g id="XMLID_40_">
	<path id="XMLID_42_" class="st0" d="M63.1,375c1.4,0.2,2.7,0.5,4.1,0.7c1.9,0.4,3.7,1,5.6,1c3.7,0,7.3-1.4,10.4-3.4
		c6.7-4.2,11.4-10.6,15-17.5c3.9-7.4,6.3-15.6,8-23.8c1.7-8.1,2.6-16.5,2.8-24.8c0.4-13.6-0.8-27.4-3.3-40.9
		c-2-10.6-5.1-21.5-11.3-30.4c-2.9-4.2-6.7-7.9-11.2-10.5c-5.2-3-11.1-4.2-17.1-3.8c-1.3,0.1-2.5,0.3-3.7,0.4
		c2.8-0.4,5.5-0.9,8.3-0.7c3.5,0.2,6.9,0.9,10.1,2.3c6,2.5,10.8,7.4,14.4,12.8c7.7,11.6,11.1,25.5,13.1,39.1
		c2.1,13.9,2.5,28.2,1,42.2c-1.5,13.8-4.4,28-11.4,40.1c-1.7,3-3.7,5.8-6,8.3c-2.2,2.3-4.4,4.6-7.2,6.2c-5.1,3-11.2,3.8-17.1,3.2
		C66,375.5,64.5,375.3,63.1,375z"/>
</g>
<g id="XMLID_38_">
	<path id="XMLID_39_" class="st0" d="M75,383.2c7.7,1.5,15.2,0.2,21.9-3.9c6.2-3.8,11.2-9.7,14.9-15.9c4-6.6,6.7-13.8,8.9-21.2
		c2.2-7.4,4.1-15,5.4-22.6c2.5-14.8,2-30-0.6-44.7c-2.6-14.9-7.1-29.9-15.8-42.5c-4.1-6-9.1-11.6-15.4-15.4c-3-1.8-6.3-3-9.8-3.5
		c-1.7-0.3-3.3-0.3-5-0.2c-0.2,0-2,0.2-1.9,0.4c0.2,0.2,1,0.1,1.3,0.2c0.9,0.1,1.7,0.1,2.6,0.2c2.4,0.2,4.8,0.5,7.1,0.9
		c2.4,0.5,4.7,1.1,6.8,2.4c3.1,1.9,5.9,4.2,8.4,6.9c5.2,5.4,9.5,11.8,12.8,18.5c3.4,7,5.6,14.7,7.4,22.2c3.7,15.8,5.4,32.3,3.8,48.4
		c-0.8,8-2.4,15.8-4.6,23.5c-2.1,7.5-4.4,15-8,21.9c-3.2,6.3-7.4,12.6-12.9,17.1c-5,4.1-11.2,6.6-17.7,7.3
		C81.4,383.5,78.1,383.5,75,383.2C78.1,383.8,86.6,384.5,75,383.2z"/>
</g>
<g id="XMLID_33_">
	<path id="XMLID_34_" class="st0" d="M96.9,409.2c-7.6,0.4-14.7-3.3-20.4-8.1c-6.4-5.4-11.3-12.2-15.2-19.6
		c-1.1-2.2-2.2-4.3-3.2-6.5c-0.9-1.9-1.4-3.8-2.2-5.7c2.6,0.5,5,0.4,7.4-0.7c2.3-1,4.4-2.4,6.3-4c3.9-3.3,7.1-7.4,9.6-11.9
		c2.8-5.1,4.9-10.7,6.6-16.2c1.8-5.9,3.2-12,4-18.1c1.5-12.5,1.9-25.1,0.2-37.6c-0.8-6-2.1-11.9-3.7-17.7
		c-1.4-5.2-3.2-10.3-5.7-15.1c-2.7-5.3-6.1-10.2-10.2-14.4c-2-2-3.8-4.1-6.1-5.8c-1.2-0.8-2.5-1.5-3.9-1.9c-1.4-0.4-2.7-0.1-4.1-0.1
		c0.1-0.7-0.3-1.4-0.2-2.1c0.1-1,0.8-1.8,1.2-2.7c0.9-2.1,2-4.1,3.1-6.1c2.1-3.9,4.5-7.6,7.3-11c5.5-6.6,11.8-12.6,20.2-15.2
		c2.8-0.9,5.5-1.3,8.5-1.5c-2.5,0.3-5,0.7-7.4,1.4c-4.1,1.2-8.1,3.3-11.5,5.9c-6.6,5.1-11.8,12.2-15.9,19.5
		c-1.4,2.4-2.6,4.9-3.8,7.5c-0.3,0.6-0.5,1.2-0.8,1.8c-0.4,0.9-0.2,1.2,0,2.2c-0.1-0.1-0.2-0.2-0.3-0.3c2.6-0.3,5.3,0.1,7.5,1.5
		c2.4,1.5,4.3,3.9,6.4,5.9c3.1,3,5.9,6.1,8.2,9.8c5.9,9.2,9.3,19.8,11.4,30.5c2.1,11.1,2.8,22.4,2,33.6c-0.9,13.1-3.3,26.1-8.2,38.4
		c-2.3,5.9-5.3,11.5-9.4,16.4c-3.5,4.1-8.3,7.9-13.8,8.7c-1.3,0.2-2.7,0.2-4,0c0.3-0.3,0.4,0.4,0.4,0.6c0.2,0.5,0.4,1.1,0.5,1.6
		c0.3,1,0.8,1.9,1.2,2.9c0.8,1.9,1.7,3.9,2.7,5.7c1.9,3.7,4.1,7.4,6.6,10.7c4.3,5.9,10.1,11.7,16.7,15c1.8,0.9,3.7,1.7,5.7,2.1
		C92.5,408.8,94.7,409.2,96.9,409.2c-0.1,0-1.4,0-1.4,0.1C95.5,409.1,96.7,409.2,96.9,409.2C87.9,409.6,95.7,409.2,96.9,409.2z"/>
</g>
<g id="XMLID_29_">
	<path id="XMLID_30_" class="st0" d="M48.2,160.8c1.3,8.7,1.3,17.5,1.2,26.3c-0.1,8.7-0.5,17.4-0.8,26.1c-0.1,3-0.3,6.1-0.1,9.2
		c0-7.6-0.4-15.2-0.5-22.8c-0.1-8.2,0-16.5,0.1-24.7C48,170.1,48.1,165.4,48.2,160.8c0.2,1.4,0,3,0,4.4c0,0.9,0,1.8,0,2.6
		c0,0.3-0.1,0.9,0,1.2c-0.2-0.5,0-1.4,0-1.8C48.1,165,48.1,162.9,48.2,160.8C51,179,48,178.8,48.2,160.8z"/>
</g>
<g id="XMLID_26_">
	<path id="XMLID_27_" class="st0" d="M80.7,417.1c-1.4-0.6-2.9-1.1-4.3-1.9c-1.5-0.8-3-1.7-4.4-2.7c-2.9-2-5.5-4.4-7.7-7.2
		c-4.8-5.9-7.7-13.4-8.8-20.8c-0.8-4.8-0.5-9.5-0.4-14.3c-0.1,7.7,0.6,15.5,3.3,22.8c2.7,7.3,7.3,13.8,13.4,18.7
		c1.7,1.3,3.3,2.5,5.2,3.6C78.1,416,79.4,416.5,80.7,417.1z"/>
</g>
<g id="XMLID_24_">
	<path id="XMLID_25_" class="st0" d="M79.3,180c-6.6,3.4-12.7,8-16.9,14.1c-4.6,6.7-6.4,14.9-7.3,22.8c-0.3,2.9-0.8,5.7-1.1,8.6
		c0.1-3.8,0.4-7.7,1-11.5c0.5-3.7,1-7.6,2.1-11.2c1.9-6.5,6.2-12.9,11.7-16.8C72,183.5,75.4,181.4,79.3,180z"/>
</g>
<g id="XMLID_21_">
	<path id="XMLID_22_" class="st0" d="M63.6,176.9c-3.4,4.8-6.4,9.7-8.3,15.3c-2.2,6.5-3.3,13.5-3.5,20.4c-0.1,4.3,0,8.6,0.2,12.8
		c-2.2-13.7-1.2-29,6-41.1C59.6,181.6,61.6,179.2,63.6,176.9z"/>
</g>
<g id="XMLID_17_">
	<path id="XMLID_20_" class="st0" d="M64.2,420c-9.3-9.7-12.5-24.1-12.8-37.2c-0.1-4.2,0.3-8.4,1.2-12.4c-0.8,5.7-0.7,11.6,0.1,17.3
		c0.1,3,0.6,5.9,1.3,8.9c0.6,2.9,1.3,5.8,2.2,8.6C57.8,410.4,60.8,415.5,64.2,420c-0.3-0.3-1.1-0.9-1.1-1.3
		C63.1,419,64,419.7,64.2,420C60,415.7,63.3,418.8,64.2,420C57.8,413.3,63.3,418.8,64.2,420z"/>
</g>
<g id="XMLID_15_">
	<path id="XMLID_16_" class="st0" d="M73.6,213.9c0.3-0.4,0.5-1,0.9-1.4c0.5,0.5,1,0.8,1.5,1.3c-1.8,0.4-3.6,1.2-5.2,2.1
		c-2,1-4.1,2.1-5.9,3.4c-2.5,1.8-4.7,3.8-7,5.9c4.5-5.7,10.2-10.2,17.5-11.7c0,0.1,0,0.3-0.1,0.4c-0.3-0.3-0.6-0.7-0.9-1
		c0.1,0,0.1,0,0.2,0C74.3,213.2,73.9,213.6,73.6,213.9c0.1-0.1,0.1-0.2,0.2-0.3C73.8,213.6,73.5,213.9,73.6,213.9
		C73.9,213.5,74,213.6,73.6,213.9C73.9,213.5,74,213.6,73.6,213.9z"/>
</g>
<g id="XMLID_13_">
	<path id="XMLID_14_" class="st0" d="M113.7,301c-0.9,0-1.8-0.3-2.6-0.8c-0.1-0.1-1.7-0.9-1.6-1.2c0.2-0.3,1.5,0.2,1.6,0.2
		C112.1,299.5,113,300,113.7,301z"/>
</g>
<g id="XMLID_11_">
	<path id="XMLID_12_" class="st0" d="M131.6,300.8c-0.9,0-1.8-0.4-2.6-0.8c-0.2-0.1-1.2-0.5-1.1-0.8c0-0.3,1.1-0.1,1.2,0
		C130,299.4,130.9,299.9,131.6,300.8z"/>
</g>
<g id="XMLID_9_">
	<path id="XMLID_10_" class="st0" d="M124.4,300.8c0.5-1.2,2-2.1,3.3-2.2C127.2,299.8,125.6,300.6,124.4,300.8z"/>
</g>
<g id="XMLID_7_">
	<path id="XMLID_8_" class="st0" d="M106,301.3c0.5-1.2,2-2.1,3.3-2.2C108.8,300.3,107.2,301.1,106,301.3z"/>
</g>
<g id="XMLID_5_">
	<path id="XMLID_6_" class="st0" d="M94.8,300.5c-1-0.2-1.9-0.5-2.8-1c0.1,0,0.3,0,0.4,0c-1.4,0.4-2.7,0.8-4.1,1.2
		c1.1-0.7,2.3-1.6,3.6-2c0.5-0.2,0.6,0,1.1,0.4C93.6,299.5,94.2,299.9,94.8,300.5c-0.1,0-0.7-0.2-0.7-0.3
		C94.1,300,94.7,300.5,94.8,300.5C93.8,300.3,94,299.8,94.8,300.5C93.8,300.3,94,299.8,94.8,300.5z"/>
</g>
<g id="XMLID_3_">
	<path id="XMLID_4_" class="st0" d="M149.4,300.5c-1.4,0.4-3.1-0.5-4-1.5C146.7,298.6,148.4,299.5,149.4,300.5z"/>
</g>
</svg>
