<?xml version="1.0" encoding="utf-8"?>
<!-- Generator: Adobe Illustrator 19.0.0, SVG Export Plug-In . SVG Version: 6.00 Build 0)  -->
<svg version="1.1" id="Layer_1" xmlns="http://www.w3.org/2000/svg" xmlns:xlink="http://www.w3.org/1999/xlink" x="0px" y="0px"
	 viewBox="-91.7 229.6 720.2 136.7" style="enable-background:new -91.7 229.6 720.2 136.7;" xml:space="preserve">
<style type="text/css">
	.st0{opacity:0.65;fill:#FFFFFF;}
	.st1{fill:#1754A7;}
	.st2{fill:#4676B8;}
	.st3{fill:#1D3F6C;}
	.st4{fill:#F6A11C;}
	.st5{fill:#1A2D58;}
</style>
<path class="st0" d="M560.2,366.8H-23.4c-37.6,0-68.3-30.7-68.3-68.3v0c0-37.6,30.7-68.3,68.3-68.3h583.6
	c37.6,0,68.3,30.7,68.3,68.3v0C628.5,336,597.8,366.8,560.2,366.8z"/>
<g id="XMLID_5469_">
	<g id="XMLID_5471_">
		<g id="XMLID_278_">
			<path id="XMLID_312_" class="st1" d="M333.3,336.8c-14.6,0-24.6-13.3-28-26.2c-3.6-13.6-1-29.6,8.2-40.5
				c4.4-5.2,10.5-9.1,17.4-9.8c6.9-0.7,13.5,1.8,18.7,6.3c10.8,9.3,14.6,25.2,12.7,38.9C360.2,320.2,349.8,336.8,333.3,336.8z
				 M333.3,264.6c-12.7,0-20.9,12.3-23.6,23.5c-2.8,11.8-0.8,25.4,6.7,35.1c3.6,4.6,8.7,8.3,14.5,9c6.1,0.8,12-1.6,16.4-5.8
				c9-8.4,11.9-22.1,10.4-34C356.1,279.9,347.7,264.6,333.3,264.6z"/>
			<path id="XMLID_308_" class="st1" d="M-47.9,336.8c-1.3,0-2.3-1-2.3-2.3v-72.3c0-3,4.7-2.9,4.7,0v72.3
				C-45.6,335.8-46.6,336.8-47.9,336.8z M-11.7,300.5h-34.7c-3,0-3-4.4,0-4.4h34.7C-8.7,296.1-8.7,300.5-11.7,300.5z M-9.2,336.8
				c-1.3,0-2.3-1-2.3-2.3v-72.3c0-2.9,4.7-2.9,4.7,0v72.3C-6.9,335.8-7.9,336.8-9.2,336.8z"/>
			<path id="XMLID_303_" class="st1" d="M10.3,283.1c-1.2,0-2.3-0.9-2.3-2.1v-18.9c0-2.7,4.6-2.7,4.6,0V281
				C12.5,282.2,11.4,283.1,10.3,283.1z M32.1,303.9c-10,0-19.3-6.1-22.8-15.5c-0.9-2.3-1.6-5.2-1.4-7.7c0.2-2.2,3.2-3.1,4.3-1
				c0.5,0.9,0.3,2.2,0.4,3.2c0.1,1.2,0.4,2.5,0.8,3.6c0.8,2.3,2.1,4.5,3.7,6.3c6.9,7.8,19,8.9,27.3,2.5c3.8-3,6.6-7.4,7.2-12.3
				c0.1-1.1-0.1-2.6,0.5-3.6c0.6-0.8,1.6-1.2,2.6-0.9c2.4,0.8,1.6,4.2,1.3,6.1C54,296,43.4,303.9,32.1,303.9z M32.2,336.8
				c-1.2,0-2.3-1.1-2.3-2.3v-31c0-2.8,4.6-2.9,4.6,0v31C34.5,335.7,33.5,336.8,32.2,336.8z M54,283.1c-1.2,0-2.2-0.9-2.2-2.1v-18.9
				c0-2.8,4.6-2.7,4.6,0V281C56.3,282.3,55.2,283.1,54,283.1z"/>
			<path id="XMLID_299_" class="st1" d="M129.9,336.7c-1.3,0-2.3-0.9-2.3-2.2v-72.3c0-1.3,1.1-2.3,2.3-2.3h39.5c3,0,3,4.5,0,4.5
				h-37.2v70C132.3,336,131.5,336.7,129.9,336.7z M169.5,336.7H130c-3,0-3-4.4,0-4.4h39.5C172.5,332.3,172.6,336.7,169.5,336.7z
				 M159,300.6h-27.4c-3,0-3-4.4,0-4.4H159c1.7,0,3.3,0.1,5,0.2c1.5,0.1,4.1-0.2,4.1,2c0,2.2-2.5,1.9-4.1,2S160.7,300.6,159,300.6z"
				/>
			<path id="XMLID_294_" class="st1" d="M213.4,264.4h-25.5c-3,0-3-4.4,0-4.4h25.5C216.5,260,216.5,264.4,213.4,264.4z M221.6,336.8
				c-0.9,0-1.5-0.4-2-1.2l-21.2-36.3c-1.6-2.5,2.6-4.5,4.2-2.1l21.2,36.3c0.7,1.1,0.1,2.4-1,3C222.4,336.7,222,336.8,221.6,336.8z
				 M205.2,300.5h-4.8c-3,0-3-4.5,0-4.5h4.8C208.3,296,208.3,300.5,205.2,300.5z M204.9,300.5c-2.4,0-3.2-3.2-1.1-4.3
				c1.2-0.6,3.3-0.3,4.6-0.4c3.4-0.2,7.2-0.2,10.4-1.7c4.7-2.3,8.2-6.9,8.8-12.2c0.6-5.5-1.9-10.9-6.3-14.2c-1.7-1.3-3.9-2.4-6-3.1
				c-1.6-0.5-4.5,0.1-4.6-2.5c-0.1-5.2,9.9-0.1,11.6,0.9c9.7,5.7,13.2,18.3,6.8,27.8c-2.7,4-7.2,7.6-12,8.5
				C213.1,300.2,208.9,300.5,204.9,300.5z"/>
			<path id="XMLID_289_" class="st1" d="M269.6,264.4H244c-3,0-3-4.5,0-4.5h25.6C272.6,259.9,272.6,264.4,269.6,264.4z M254.5,336.8
				c-1.3,0-2.3-1-2.3-2.3v-36.2c0-2.9,4.7-2.9,4.7,0v36.2C256.8,335.8,255.8,336.8,254.5,336.8z M269.6,300.5h-15.1
				c-3,0-3-4.4,0-4.4h15.1C272.6,296.1,272.6,300.5,269.6,300.5z M269.3,300.5c-1.8,0-3.2-1.9-2-3.5c0.6-0.7,1.4-0.9,2.3-0.9
				c1.3-0.1,2.5-0.2,3.8-0.5c4.1-1,7.8-3.5,10.1-7.1c5.1-7.7,1.9-17.8-6.1-22c-2-1.1-4.3-1.8-6.6-2c-1.7-0.1-4.4-0.1-4-2.7
				c0.4-2.4,3.3-2,5-1.8c2.3,0.3,4.5,0.9,6.6,1.8c8,3.7,13.2,12.1,12,21C289.1,293.2,279.5,300.5,269.3,300.5z"/>
			<path id="XMLID_284_" class="st1" d="M95.3,264.4H69.7c-3,0-3-4.5,0-4.5h25.6C98.3,259.9,98.3,264.4,95.3,264.4z M80.1,336.8
				c-1.3,0-2.3-1-2.3-2.3v-36.2c0-2.9,4.7-2.9,4.7,0v36.2C82.5,335.8,81.4,336.8,80.1,336.8z M95.3,300.5H80.2c-3,0-3-4.4,0-4.4
				h15.1C98.2,296.1,98.3,300.5,95.3,300.5z M94.9,300.5c-1.8,0-3.2-1.9-2-3.5c0.6-0.7,1.4-0.9,2.3-0.9c1.3-0.1,2.5-0.2,3.8-0.5
				c4.1-1,7.8-3.5,10.1-7.1c5.1-7.7,1.9-17.8-6.1-22c-2-1.1-4.3-1.8-6.6-2c-1.7-0.1-4.4-0.1-4-2.7c0.4-2.4,3.3-2,5-1.8
				c2.3,0.3,4.5,0.9,6.6,1.8c8,3.7,13.2,12.1,12,21C114.8,293.2,105.1,300.5,94.9,300.5z"/>
			<path id="XMLID_279_" class="st1" d="M384.3,336.8c-1.2,0-2.3-1-2.3-2.2v-72.5c0-2.8,4.7-2.8,4.7,0v72.5
				C386.7,335.8,385.5,336.8,384.3,336.8z M398.8,264.4h-14.5c-3,0-3-4.4,0-4.4h14.5C401.8,260,401.8,264.4,398.8,264.4z
				 M398.8,336.8h-14.5c-3,0-3-4.4,0-4.4h14.5C401.9,332.4,401.8,336.8,398.8,336.8z M399.3,336.8c-1.4,0-2.5-1.2-2.3-2.6
				c0.3-1.9,2.2-1.8,3.7-1.9c3.1-0.2,6-1.9,8.6-3.6c6-3.9,10.1-10,12.4-16.7c4.8-13.6,2.2-31.1-8.8-41.2c-2.5-2.3-5.5-4.2-8.6-5.5
				c-1.3-0.5-2.7-0.8-4.1-0.9s-3.1-0.2-3.3-2.1c-0.3-3.6,5.4-2.3,7.3-1.7c3.1,0.9,6.1,2.7,8.7,4.5c12.2,8.7,17.1,24.9,15.2,39.4
				c-1,8-4.3,15.9-9.7,22C413.7,332,406.6,336.8,399.3,336.8z"/>
		</g>
	</g>
	<path id="XMLID_5470_" class="st1" d="M185.7,262.2c0,8.5,0,17.1,0,25.6c0,13.1,0,26.2,0,39.3c0,2.5-0.2,5.1,0,7.6
		c0.2,2.6,4.1,2.6,4.3,0c0-0.2,0-0.4,0-0.6c0-1.3,0-2.6,0-3.9c0-12.4,0-24.8,0-37.2c0-10.1,0-20.2,0-30.3c0-0.2,0-0.3,0-0.5H185.7z"
		/>
</g>
<g id="XMLID_5465_">
	<path id="XMLID_10_" class="st1" d="M-22.3,236.1c0,0,6.5-0.1,18-0.3c5.7-0.1,12.7-0.2,20.6-0.3c8-0.1,17-0.2,26.8-0.3
		c9.8-0.1,20.5-0.2,31.7-0.2c11.2-0.1,23.1-0.2,35.4-0.2c24.7-0.1,50.9-0.2,77.1-0.2c26.2,0,52.5,0.1,77,0.2
		c12.3,0,24.2,0.1,35.4,0.2c11.2,0.1,21.9,0.2,31.7,0.2c9.8,0.1,18.8,0.2,26.8,0.3c8,0.1,15,0.2,20.6,0.3c11.5,0.2,18,0.3,18,0.3
		s-6.5,0.1-18,0.3c-5.7,0.1-12.7,0.2-20.6,0.3c-8,0.1-17,0.2-26.8,0.3c-9.8,0.1-20.5,0.2-31.7,0.2c-11.2,0.1-23.1,0.2-35.4,0.2
		c-24.6,0-50.8,0.1-77,0.2c-26.2-0.1-52.5-0.1-77-0.2c-12.3,0-24.2-0.1-35.4-0.2C63.7,237.1,53,237,43.2,237
		c-9.8-0.2-18.8-0.3-26.9-0.4c-8-0.1-14.9-0.2-20.6-0.2C-15.8,236.2-22.3,236.1-22.3,236.1z"/>
</g>
<g id="XMLID_5461_">
	<path id="XMLID_8_" class="st1" d="M-22.3,360.3c0,0,6.5-0.1,18-0.3c5.7-0.1,12.7-0.2,20.6-0.3s17-0.2,26.8-0.3s20.5-0.2,31.7-0.2
		c11.2-0.1,23.1-0.2,35.4-0.2c24.6-0.1,50.8-0.1,77-0.2c26.2,0.1,52.5,0.1,77,0.2c12.3,0,24.2,0.1,35.4,0.2
		c11.2,0.1,21.9,0.2,31.7,0.2c9.8,0.1,18.8,0.2,26.8,0.3c8,0.1,15,0.2,20.6,0.3c11.5,0.2,18,0.3,18,0.3s-6.5,0.1-18,0.3
		c-5.7,0.1-12.7,0.2-20.6,0.3c-8,0.1-17,0.2-26.8,0.3s-20.5,0.2-31.7,0.2c-11.2,0.1-23.1,0.2-35.4,0.2c-24.6,0.1-50.8,0.1-77,0.2
		c-26.2-0.1-52.5-0.1-77-0.2c-12.3,0-24.2-0.1-35.4-0.2s-21.9-0.2-31.7-0.2c-9.8-0.1-18.8-0.2-26.8-0.3s-15-0.2-20.6-0.3
		C-15.8,360.4-22.3,360.3-22.3,360.3z"/>
</g>
<g id="XMLID_210_">
	<polygon id="XMLID_66_" class="st2" points="519.2,312.5 529,305.2 586.6,348 576.8,355.2 	"/>
	<path id="XMLID_28_" class="st3" d="M576.8,297.9v28.2c-3.3-2.4-38.1-28.2-38.1-28.2l-9.8,7.3l57.6,42.8v-42.7L576.8,297.9z"/>
	<polygon id="XMLID_32_" class="st3" points="576.8,283.2 586.6,290.6 586.6,247.9 576.8,240.7 	"/>
	<polygon id="XMLID_31_" class="st4" points="576.8,297.9 576.8,297.9 567,305.3 567,318.9 576.8,326.2 	"/>
	<path id="XMLID_35_" class="st4" d="M471.3,318.9v14.5c31.9-23.7,63.8-47.3,95.7-71c0,9.4,0,18.7,0,28.1c3.3-2.5,6.5-4.9,9.8-7.4
		v-42.4C576.8,240.7,487.3,307.1,471.3,318.9z"/>
	<path id="XMLID_23_" class="st5" d="M471.3,333.4c0-4.8,0-28.1,0-28.1l-9.8,7.1v42.8C487.3,336.1,567,277,567,277l0,0l0,0v-14.6"/>
	<polygon id="XMLID_36_" class="st5" points="461.6,297.9 471.3,290.7 471.3,277 471.3,277 471.3,277 461.6,269.7 	"/>
	<path id="XMLID_37_" class="st3" d="M519.2,283.4l-57.6-42.7l-9.8,7.3c19.2,14.3,38.4,28.5,57.6,42.8L519.2,283.4z"/>
	<path id="XMLID_18_" class="st2" d="M451.8,290.7l9.8,7.3l0,0v-28.3c12.7,9.4,25.4,18.8,38.1,28.2l9.8-7.3l-57.6-42.8"/>
	<polyline id="XMLID_19_" class="st2" points="461.6,355.2 461.6,312.5 461.5,312.5 451.8,305.2 451.8,349.1 	"/>
</g>
</svg>
