<?xml version="1.0" encoding="utf-8"?>
<!-- Generator: Adobe Illustrator 19.0.0, SVG Export Plug-In . SVG Version: 6.00 Build 0)  -->
<svg version="1.1" xmlns="http://www.w3.org/2000/svg" xmlns:xlink="http://www.w3.org/1999/xlink" x="0px" y="0px"
	 viewBox="0 0 286.6 243.5" style="enable-background:new 0 0 286.6 243.5;" xml:space="preserve">
<style type="text/css">
	.st0{fill:#4676B8;}
	.st1{fill:#1D3F6C;}
	.st2{fill:#F6A11C;}
	.st3{fill:#1A2D58;}
</style>
<g id="Layer_5">
</g>
<g id="Layer_7">
	<g id="XMLID_210_">
		<polygon id="XMLID_66_" class="st0" points="143.3,152.6 164.1,137.2 286.7,228.1 265.8,243.5 		"/>
		<path id="XMLID_28_" class="st1" d="M265.8,121.8v60c-6.9-5.1-80.9-60-80.9-60l-20.8,15.4l122.5,90.9v-90.6L265.8,121.8z"/>
		<polygon id="XMLID_32_" class="st1" points="265.8,90.4 286.6,106.1 286.6,15.4 265.8,0 		"/>
		<polygon id="XMLID_31_" class="st2" points="265.8,121.8 265.8,121.7 245,137.4 245,166.3 265.8,181.8 		"/>
		<path id="XMLID_35_" class="st2" d="M41.6,166.3v30.9C109.4,146.9,177.2,96.6,245,46.3c0,19.9,0,39.9,0,59.8
			c6.9-5.2,13.9-10.5,20.8-15.7V0C265.8,0,75.5,141.2,41.6,166.3z"/>
		<path id="XMLID_23_" class="st3" d="M41.6,197.2c0-10.3,0-59.8,0-59.8l-20.8,15.2v90.9C75.5,202.9,245,77.2,245,77.2v0l0,0V46.3"
			/>
		<polygon id="XMLID_36_" class="st3" points="20.8,121.8 41.6,106.3 41.6,77.2 41.6,77.2 41.6,77.2 20.8,61.7 		"/>
		<path id="XMLID_37_" class="st1" d="M143.3,90.9L20.8,0L0,15.4C40.8,45.7,81.7,76,122.5,106.3L143.3,90.9z"/>
		<path id="XMLID_18_" class="st0" d="M0,106.3l20.8,15.5l0,0v-60c27,20,53.9,40,80.9,60l20.8-15.4L0,15.4"/>
		<polyline id="XMLID_19_" class="st0" points="20.8,243.5 20.8,152.6 20.8,152.6 0,137.2 0,230.5 		"/>
	</g>
</g>
</svg>
