<?xml version="1.0" standalone="no"?>
<!DOCTYPE svg PUBLIC "-//W3C//DTD SVG 20010904//EN"
 "http://www.w3.org/TR/2001/REC-SVG-20010904/DTD/svg10.dtd">
<svg version="1.0" xmlns="http://www.w3.org/2000/svg"
 width="16.000000pt" height="16.000000pt" viewBox="0 0 16.000000 16.000000"
 preserveAspectRatio="xMidYMid meet">
<metadata>
Created by potrace 1.11, written by Peter Selinger 2001-2013
</metadata>
<g transform="translate(0.000000,16.000000) scale(0.002286,-0.002286)"
fill="#000000" stroke="none">
<path d="M3298 6995 c-1 -1 -48 -6 -102 -9 -55 -4 -102 -8 -105 -10 -3 -2 -35
-7 -70 -10 -35 -4 -85 -11 -110 -16 -25 -5 -57 -12 -71 -14 -423 -77 -856
-251 -1250 -504 -77 -50 -300 -215 -341 -252 -9 -8 -63 -58 -120 -110 -91 -83
-206 -202 -310 -320 -151 -172 -367 -509 -481 -749 -99 -210 -215 -540 -243
-691 -3 -14 -7 -36 -10 -50 -61 -272 -79 -457 -79 -775 0 -234 10 -378 40
-550 3 -16 7 -41 9 -55 41 -273 170 -658 324 -962 222 -441 561 -859 931
-1149 30 -24 57 -46 60 -49 3 -4 28 -21 55 -40 28 -19 52 -36 55 -40 22 -27
296 -191 445 -267 245 -125 618 -257 843 -298 15 -3 38 -7 52 -10 83 -17 203
-36 245 -40 17 -1 62 -6 100 -11 135 -17 656 -10 765 10 14 3 48 7 75 11 304
38 690 156 1003 305 991 474 1704 1389 1921 2467 16 81 33 177 37 213 3 36 8
68 10 72 24 41 24 689 -1 828 -2 14 -7 45 -10 70 -3 25 -7 56 -10 70 -3 14 -8
41 -11 60 -11 72 -56 268 -80 350 -103 348 -243 652 -439 950 -476 725 -1199
1244 -2035 1464 -186 49 -266 63 -560 102 -48 6 -526 15 -532 9z m-1593 -1614
c203 -151 430 -319 503 -373 141 -105 185 -138 812 -601 223 -165 413 -307
423 -316 16 -16 8 -24 -145 -136 -89 -66 -165 -119 -169 -118 -4 2 -91 65
-192 140 -102 76 -252 187 -334 248 -205 151 -609 451 -660 489 -23 17 -52 39
-65 48 -12 9 -90 67 -173 128 -82 62 -161 120 -175 130 -14 10 -79 59 -145
108 -66 49 -184 137 -262 194 l-142 105 166 122 c93 68 170 118 176 114 7 -4
178 -131 382 -282z m3965 -524 l0 -793 -157 -116 c-87 -64 -160 -113 -163
-108 -3 4 -5 249 -4 544 0 295 -1 536 -3 536 -2 0 -49 -34 -106 -77 -56 -42
-140 -105 -187 -140 -47 -35 -96 -72 -110 -82 -14 -10 -74 -55 -135 -100 -60
-44 -114 -84 -120 -88 -5 -5 -84 -63 -175 -131 -91 -67 -257 -191 -370 -274
-113 -84 -275 -205 -360 -268 -85 -63 -267 -198 -405 -300 -137 -102 -311
-231 -385 -285 -74 -55 -137 -102 -140 -105 -3 -3 -30 -23 -60 -45 -30 -22
-59 -43 -65 -48 -5 -4 -53 -39 -105 -78 -52 -38 -106 -79 -120 -89 -14 -10
-101 -75 -195 -144 -93 -69 -174 -129 -180 -133 -5 -5 -59 -44 -118 -88 -59
-44 -148 -110 -197 -147 -48 -38 -91 -68 -94 -68 -3 0 -6 110 -6 244 l0 244
92 68 c101 74 352 261 713 529 127 94 408 302 625 463 414 306 867 642 916
679 16 11 106 78 199 147 94 69 175 129 180 134 6 4 71 53 145 107 111 82 462
342 560 415 14 11 124 92 245 182 122 90 234 173 249 186 16 12 30 22 32 22 2
0 4 -357 4 -793z m245 653 l130 -96 0 -785 c0 -514 -3 -785 -10 -786 -5 -2
-79 48 -162 109 l-153 112 0 794 0 793 33 -22 c17 -13 91 -66 162 -119z
m-4789 -253 c178 -132 521 -387 782 -580 103 -76 194 -144 202 -150 8 -7 87
-65 175 -130 88 -66 171 -127 185 -137 14 -11 142 -106 285 -212 143 -106 275
-204 293 -217 18 -13 32 -27 30 -32 -2 -6 -75 -63 -162 -128 l-159 -118 -96
72 c-53 39 -307 228 -566 420 -259 191 -543 402 -633 469 -89 67 -166 122
-170 124 -4 1 -7 -243 -7 -543 0 -300 -2 -545 -4 -545 -4 0 -143 102 -151 110
-3 3 -27 22 -55 41 -27 18 -56 40 -63 46 -7 7 -21 17 -30 22 -16 9 -17 67 -17
805 0 438 2 796 5 796 3 0 73 -51 156 -113z m4169 -680 l0 -243 -115 -86
c-486 -360 -1578 -1171 -1590 -1181 -8 -7 -40 -30 -70 -52 -30 -22 -158 -116
-285 -210 -126 -94 -311 -231 -410 -304 -205 -152 -266 -197 -280 -209 -9 -7
-92 -69 -424 -315 -81 -59 -157 -116 -171 -127 -14 -10 -97 -72 -185 -137 -88
-65 -218 -161 -290 -215 -71 -53 -132 -94 -134 -92 -6 5 -6 1583 0 1587 24 20
311 227 314 227 3 0 6 -245 7 -545 l3 -544 385 285 c212 157 519 385 683 507
164 122 407 303 540 401 225 167 353 262 839 622 364 271 947 704 1022 759 15
11 55 41 89 67 34 26 64 47 67 48 3 0 6 -109 5 -243z m-3749 -182 c6 -5 34
-26 62 -45 48 -32 52 -38 53 -75 0 -22 1 -141 1 -265 l1 -224 -29 -23 c-106
-83 -287 -213 -292 -209 -4 4 -6 870 -3 974 1 20 11 15 99 -50 53 -40 102 -77
108 -83z m4122 -1643 l-3 -248 -159 118 -160 118 1 243 c1 133 2 252 2 263 1
15 33 45 109 100 59 43 109 81 112 84 3 3 25 20 50 38 l45 33 3 -251 c1 -137
1 -362 0 -498z m228 620 l151 -114 0 -793 0 -794 -31 22 c-17 12 -94 68 -171
126 -77 57 -159 118 -183 135 -23 17 -51 38 -61 46 -11 8 -116 87 -235 175
-119 88 -303 224 -409 303 -105 79 -203 151 -216 160 -13 9 -51 38 -85 63 -65
50 -575 428 -614 457 -13 9 -40 29 -59 45 -20 15 -40 27 -44 27 -21 0 -6 30
24 51 17 13 89 65 159 117 l128 94 32 -24 c18 -12 177 -130 353 -260 176 -131
430 -320 565 -420 135 -100 307 -228 383 -285 l137 -103 1 42 c0 24 0 271 1
550 0 376 3 506 12 501 6 -4 79 -58 162 -121z m-4740 -284 l131 -97 0 -820 -1
-821 -30 24 c-17 12 -85 63 -151 112 -66 48 -125 93 -130 99 -7 7 -11 275 -11
827 l0 816 31 -21 c16 -12 89 -65 161 -119z m2944 -36 c91 -67 242 -179 336
-249 95 -71 387 -288 650 -483 873 -647 940 -698 933 -703 -2 -2 -75 -56 -161
-120 -87 -64 -160 -117 -163 -117 -3 0 -61 42 -129 93 -68 50 -136 101 -151
112 -15 11 -137 101 -270 200 -134 99 -380 281 -547 405 -166 123 -424 315
-573 425 -148 110 -316 234 -372 275 -56 41 -101 78 -100 82 1 4 74 61 162
127 l160 119 30 -22 c17 -12 104 -77 195 -144z"/>
</g>
</svg>
